<svg width="32" height="33" viewBox="0 0 32 33" fill="none" xmlns="http://www.w3.org/2000/svg">
<path fill-rule="evenodd" clip-rule="evenodd" d="M0 16.3589C0 7.52233 7.16344 0.358887 16 0.358887C24.8366 0.358887 32 7.52233 32 16.3589C32 25.1954 24.8366 32.3589 16 32.3589C7.16344 32.3589 0 25.1954 0 16.3589ZM16 8.35889C20.4 8.35889 24 11.9589 24 16.3589C24 20.3589 21.1 23.7589 17.1 24.3589V18.6589H19L19.4 16.3589H17.2V14.8589C17.2 14.2589 17.5 13.6589 18.5 13.6589H19.5V11.6589C19.5 11.6589 18.6 11.4589 17.7 11.4589C15.9 11.4589 14.7 12.5589 14.7 14.5589V16.3589H12.7V18.6589H14.7V24.2589C10.9 23.6589 8 20.3589 8 16.3589C8 11.9589 11.6 8.35889 16 8.35889Z" fill="#323232"/>
</svg>
