<svg width="40" height="40" viewBox="0 0 40 40" fill="none" xmlns="http://www.w3.org/2000/svg">
<path d="M8.97546 31.1958C7.21764 29.8444 5.77818 28.1103 4.78879 26.123C3.83709 24.2086 3.30206 22.063 3.30206 19.7961C3.30206 15.7961 4.96046 12.1743 7.64146 9.55134L7.6604 9.53285C10.3462 6.91326 14.0549 5.29492 18.1504 5.29492C22.2459 5.29492 25.9546 6.91454 28.6404 9.53285L28.6499 9.54094L28.6593 9.55019C31.3416 12.1732 32.9987 15.7952 32.9987 19.7949C32.9987 22.0607 32.4649 24.2074 31.512 26.1219C30.5224 28.1103 29.0842 29.8431 27.3253 31.1947C27.0235 31.4259 26.5867 31.3762 26.3488 31.0814C26.3168 31.0409 26.2896 30.9982 26.2683 30.9531L23.8097 26.7936C23.6452 26.5138 23.7079 26.1681 23.9411 25.9578L23.9399 25.9566C24.8087 25.1774 25.5131 24.2249 25.9936 23.1556L26.009 23.1232C26.4612 22.1059 26.7121 20.9799 26.7121 19.795C26.7121 17.4852 25.7545 15.3952 24.2039 13.8808C22.6544 12.3676 20.5142 11.4312 18.1481 11.4312C15.783 11.4312 13.643 12.3665 12.0924 13.8808C10.5429 15.3941 9.58408 17.4843 9.58408 19.795C9.58408 20.9938 9.84094 22.1302 10.3014 23.1566H10.3026C10.7844 24.226 11.4875 25.1797 12.3563 25.9577C12.6132 26.1877 12.6511 26.5623 12.4617 26.8363L10.0007 30.9978C9.81015 31.3216 9.3864 31.4337 9.05495 31.2476C9.02535 31.2302 8.99813 31.2129 8.97208 31.1932L8.9709 31.1955L8.97546 31.1958ZM28.083 19.1154H31.5903C31.4281 15.9988 30.1533 13.1675 28.147 10.9953L25.6659 13.4183C27.0438 14.9662 27.9292 16.942 28.083 19.1154ZM10.6388 13.4184L8.15773 10.9954C6.15134 13.1676 4.87652 15.9986 4.71318 19.1155H8.22167C8.37555 16.9422 9.26097 14.9655 10.6376 13.4186L10.6388 13.4184ZM17.457 16.8023V13.7688C17.457 13.3931 17.7683 13.0891 18.153 13.0891C18.5377 13.0891 18.849 13.3931 18.849 13.7688V16.8023C19.4373 16.9318 19.9641 17.2231 20.3749 17.6265C20.9442 18.1826 21.2958 18.9491 21.2958 19.7964C21.2958 20.6438 20.9442 21.4114 20.3749 21.9663C19.8055 22.5223 19.0207 22.8657 18.153 22.8657C17.2854 22.8657 16.4994 22.5223 15.9312 21.9663C15.3619 21.4102 15.0103 20.6438 15.0103 19.7964C15.0103 18.949 15.3619 18.1814 15.9312 17.6265C16.3432 17.2242 16.8687 16.9329 17.457 16.8023Z" fill="#5962FF"/>
</svg>
