<svg width="32" height="36" viewBox="0 0 32 36" fill="none" xmlns="http://www.w3.org/2000/svg">
<g clip-path="url(#clip0_163_199)">
<path d="M16 0C12.2756 0 8.25629 1.36385 6.31579 3.78947L7.81579 5.89474H24.1842L25.6842 3.78947C23.7437 1.36385 19.7244 0 16 0ZM9.57895 7.57895C9.85127 8.06669 10.2854 8.54746 11.0526 8.97368C12.2652 9.64733 14.0335 10.1053 16 10.1053C17.9665 10.1053 19.7348 9.64733 20.9474 8.97368C21.7146 8.54746 22.1487 8.06669 22.4211 7.57895H9.57895ZM8.52632 9.0921C9.09335 16.3421 12.2159 21.8947 16 21.8947C19.7841 21.8947 22.9066 16.3421 23.4737 9.0921C23.0191 9.61881 22.4327 10.0754 21.7632 10.4474C20.2327 11.2976 18.2193 11.7895 16 11.7895C13.7807 11.7895 11.7673 11.2976 10.2368 10.4474C9.56726 10.0754 8.98095 9.61881 8.52632 9.0921ZM10.2632 20.1053L4.21053 22.7368C2.12416 23.78 0 26.72 0 29.0526V35.3684H10.7895L13.5395 23.0132C12.2702 22.4145 11.1699 21.3822 10.2632 20.1053ZM21.7368 20.1053C20.8301 21.3822 19.7298 22.4145 18.4605 23.0132L21.1316 35.3684H32V29.0526C32 26.72 29.9287 23.6669 27.7895 22.7368L21.7368 20.1053ZM15.1447 23.5132L12.5 35.3684H19.3947L16.8421 23.5132C16.5668 23.555 16.287 23.5789 16 23.5789C15.7085 23.5789 15.4242 23.5563 15.1447 23.5132Z" fill="#343434"/>
</g>
<defs>
<clipPath id="clip0_163_199">
<rect width="32" height="35.3684" fill="white"/>
</clipPath>
</defs>
</svg>
