<svg width="14" height="14" viewBox="0 0 14 14" fill="none" xmlns="http://www.w3.org/2000/svg">
<path d="M6.06009 1.58757C6.37905 0.709459 7.62095 0.709457 7.93991 1.58757L8.9489 4.3653C9.08824 4.74889 9.44669 5.00932 9.85456 5.0233L12.8081 5.12454C13.7418 5.15654 14.1256 6.33765 13.389 6.91236L11.059 8.73033C10.7373 8.98138 10.6004 9.40277 10.7131 9.795L11.5295 12.6353C11.7876 13.5332 10.7829 14.2632 10.0087 13.7402L7.55973 12.0861C7.22153 11.8576 6.77847 11.8576 6.44027 12.0861L3.99127 13.7402C3.21708 14.2632 2.21237 13.5332 2.47046 12.6353L3.28689 9.795C3.39963 9.40277 3.26271 8.98138 2.94096 8.73033L0.61097 6.91236C-0.125599 6.33765 0.258165 5.15654 1.19187 5.12454L4.14544 5.0233C4.55331 5.00932 4.91176 4.74889 5.0511 4.3653L6.06009 1.58757Z" fill="#0E2759"/>
</svg>
