<svg width="32" height="33" viewBox="0 0 32 33" fill="none" xmlns="http://www.w3.org/2000/svg">
<path d="M16 19.1589C14.5 19.1589 13.2 17.9589 13.2 16.3589C13.2 14.8589 14.4 13.5589 16 13.5589C17.5 13.5589 18.8 14.7589 18.8 16.3589C18.8 17.8589 17.5 19.1589 16 19.1589Z" fill="#323232"/>
<path fill-rule="evenodd" clip-rule="evenodd" d="M19.4 9.55888H12.6C11.8 9.65888 11.4 9.75888 11.1 9.85888C10.7 9.95888 10.4 10.1589 10.1 10.4589C9.86261 10.6963 9.75045 10.9337 9.61489 11.2206C9.57916 11.2962 9.5417 11.3755 9.5 11.4589C9.48453 11.5053 9.46667 11.5541 9.44752 11.6064C9.34291 11.8922 9.2 12.2826 9.2 12.9589V19.7589C9.3 20.5589 9.4 20.9589 9.5 21.2589C9.6 21.6589 9.8 21.9589 10.1 22.2589C10.3374 22.4963 10.5748 22.6084 10.8617 22.744C10.9374 22.7798 11.0165 22.8171 11.1 22.8589C11.1464 22.8744 11.1952 22.8922 11.2475 22.9114C11.5333 23.016 11.9238 23.1589 12.6 23.1589H19.4C20.2 23.0589 20.6 22.9589 20.9 22.8589C21.3 22.7589 21.6 22.5589 21.9 22.2589C22.1374 22.0215 22.2495 21.7841 22.3851 21.4972C22.4209 21.4215 22.4583 21.3424 22.5 21.2589C22.5155 21.2125 22.5333 21.1637 22.5525 21.1114C22.6571 20.8256 22.8 20.4351 22.8 19.7589V12.9589C22.7 12.1589 22.6 11.7589 22.5 11.4589C22.4 11.0589 22.2 10.7589 21.9 10.4589C21.6626 10.2215 21.4252 10.1093 21.1383 9.97377C21.0627 9.93807 20.9833 9.90055 20.9 9.85888C20.8536 9.84341 20.8048 9.82555 20.7525 9.80641C20.4667 9.70179 20.0762 9.55888 19.4 9.55888ZM16 12.0589C13.6 12.0589 11.7 13.9589 11.7 16.3589C11.7 18.7589 13.6 20.6589 16 20.6589C18.4 20.6589 20.3 18.7589 20.3 16.3589C20.3 13.9589 18.4 12.0589 16 12.0589ZM21.4 11.9589C21.4 12.5112 20.9523 12.9589 20.4 12.9589C19.8477 12.9589 19.4 12.5112 19.4 11.9589C19.4 11.4066 19.8477 10.9589 20.4 10.9589C20.9523 10.9589 21.4 11.4066 21.4 11.9589Z" fill="#323232"/>
<path fill-rule="evenodd" clip-rule="evenodd" d="M0 16.3589C0 7.52233 7.16344 0.358887 16 0.358887C24.8366 0.358887 32 7.52233 32 16.3589C32 25.1954 24.8366 32.3589 16 32.3589C7.16344 32.3589 0 25.1954 0 16.3589ZM12.6 8.05888H19.4C20.3 8.15888 20.9 8.25888 21.4 8.45888C22 8.75888 22.4 8.95888 22.9 9.45888C23.4 9.95888 23.7 10.4589 23.9 10.9589C24.1 11.4589 24.3 12.0589 24.3 12.9589V19.7589C24.2 20.6589 24.1 21.2589 23.9 21.7589C23.6 22.3589 23.4 22.7589 22.9 23.2589C22.4 23.7589 21.9 24.0589 21.4 24.2589C20.9 24.4589 20.3 24.6589 19.4 24.6589H12.6C11.7 24.5589 11.1 24.4589 10.6 24.2589C10 23.9589 9.6 23.7589 9.1 23.2589C8.6 22.7589 8.3 22.2589 8.1 21.7589C7.9 21.2589 7.7 20.6589 7.7 19.7589V12.9589C7.8 12.0589 7.9 11.4589 8.1 10.9589C8.4 10.3589 8.6 9.95888 9.1 9.45888C9.6 8.95888 10.1 8.65888 10.6 8.45888C11.1 8.25888 11.7 8.05888 12.6 8.05888Z" fill="#323232"/>
</svg>
