<svg width="32" height="33" viewBox="0 0 32 33" fill="none" xmlns="http://www.w3.org/2000/svg">
<path fill-rule="evenodd" clip-rule="evenodd" d="M0 16.3589C0 7.52233 7.16344 0.358887 16 0.358887C24.8366 0.358887 32 7.52233 32 16.3589C32 25.1954 24.8366 32.3589 16 32.3589C7.16344 32.3589 0 25.1954 0 16.3589ZM8.2 13.6589V24.3589H11.6V13.6589H8.2ZM8 10.2589C8 11.3589 8.8 12.1589 9.9 12.1589C11 12.1589 11.8 11.3589 11.8 10.2589C11.8 9.15889 11 8.35889 9.9 8.35889C8.9 8.35889 8 9.15889 8 10.2589ZM20.6 24.3589H23.8V17.7589C23.8 14.4589 21.8 13.3589 19.9 13.3589C18.2 13.3589 17 14.4589 16.7 15.1589V13.6589H13.5V24.3589H16.9V18.6589C16.9 17.1589 17.9 16.3589 18.9 16.3589C19.9 16.3589 20.6 16.8589 20.6 18.5589V24.3589Z" fill="#323232"/>
</svg>
