<svg width="32" height="33" viewBox="0 0 32 33" fill="none" xmlns="http://www.w3.org/2000/svg">
<path d="M18.6 16.3589L14.4 13.9589V18.7589L18.6 16.3589Z" fill="#323232"/>
<path fill-rule="evenodd" clip-rule="evenodd" d="M0 16.3589C0 7.52233 7.16344 0.358887 16 0.358887C24.8366 0.358887 32 7.52233 32 16.3589C32 25.1954 24.8366 32.3589 16 32.3589C7.16344 32.3589 0 25.1954 0 16.3589ZM22.2 11.0589C22.9 11.2589 23.4 11.7589 23.6 12.4589C24 13.7589 24 16.3589 24 16.3589C24 16.3589 24 18.9589 23.7 20.2589C23.5 20.9589 23 21.4589 22.3 21.6589C21 21.9589 16 21.9589 16 21.9589C16 21.9589 10.9 21.9589 9.7 21.6589C9 21.4589 8.5 20.9589 8.3 20.2589C8 18.9589 8 16.3589 8 16.3589C8 16.3589 8 13.7589 8.2 12.4589C8.4 11.7589 8.90001 11.2589 9.60001 11.0589C10.9 10.7589 15.9 10.7589 15.9 10.7589C15.9 10.7589 21 10.7589 22.2 11.0589Z" fill="#323232"/>
</svg>
